<?xml version="1.0" encoding="utf-8"?>
<!-- Generator: Adobe Illustrator 24.0.1, SVG Export Plug-In . SVG Version: 6.00 Build 0)  -->
<svg version="1.1" id="Layer_1" xmlns="http://www.w3.org/2000/svg" xmlns:xlink="http://www.w3.org/1999/xlink" x="0px" y="0px"
	 viewBox="0 0 1053 297" style="enable-background:new 0 0 1053 297;" xml:space="preserve">
<style type="text/css">
	.st0{fill:#686868;}
	.st1{fill:#9E9E9E;}
</style>
<g>
	<path d="M88.91,92.56c5.18,1.08,8.89,3,11.14,5.79c2.25,2.78,3.71,6.52,4.4,11.21l4.25,33.12H86.42l-2.49-26.82
		c-0.49-4.79-1.93-8.25-4.32-10.4c-2.4-2.15-6.23-3.22-11.5-3.22H48.9v40.45H27.22V38.34h48.65c11.53,0,19.93,2.69,25.21,8.06
		c5.18,5.47,7.77,12.36,7.77,20.66C108.84,80.54,102.2,89.04,88.91,92.56z M48.9,56.51v28.14h20.81c5.96,0,10.43-1.29,13.41-3.88
		c2.98-2.59,4.47-6.18,4.47-10.77c0-4.2-1.25-7.5-3.74-9.89c-2.49-2.39-6.23-3.59-11.21-3.59H48.9z"/>
	<path d="M148.11,142.68h-21.69V38.34h21.69V142.68z"/>
	<path d="M211.27,146.05c-14.17,0-25.79-5.08-34.88-15.24c-9.09-10.16-13.63-23.59-13.63-40.3c0-16.61,4.59-29.84,13.78-39.71
		c9.28-9.87,20.96-14.8,35.02-14.8c12.7,0,22.96,3.3,30.77,9.89c7.81,6.59,12.21,15.61,13.19,27.04h-20.66
		c-0.88-5.76-3.25-10.23-7.11-13.41c-3.86-3.17-8.92-4.76-15.17-4.76c-8.79,0-15.68,3.22-20.66,9.67
		c-4.98,6.45-7.47,15.14-7.47,26.08c0,11.33,2.49,20.3,7.47,26.89c4.98,6.59,11.87,9.89,20.66,9.89c6.35,0,11.43-1.71,15.24-5.13
		c3.81-3.42,6.15-7.96,7.03-13.63h20.52c-0.88,11.72-5.23,20.91-13.04,27.55C234.52,142.73,224.17,146.05,211.27,146.05z"/>
	<path d="M359.87,142.68h-26.82l-32.97-47.92l-9.67,9.67v38.25h-21.69V38.34h21.69v40.3l36.93-40.3h27.7l-39.57,41.91L359.87,142.68
		z"/>
	<path class="st0" d="M463.18,136.52c-5.96,5.67-14.27,8.5-24.91,8.5c-10.75,0-19-2.83-24.77-8.5c-5.96-5.66-8.94-13.58-8.94-23.74
		v-9.23h20.52v9.53c0,8.79,4.25,13.19,12.75,13.19c8.3,0,12.46-4.4,12.46-13.19V38.34h21.69v74.44
		C471.97,122.95,469.04,130.86,463.18,136.52z"/>
	<path class="st0" d="M512.71,142.68h-21.69V38.34h21.69V142.68z"/>
	<path class="st0" d="M587.45,99.6l15.97-61.26h30.92v104.34h-20.22v-39.13l2.49-51l-7.18,31.51l-15.24,58.62h-22.13l-15.53-59.64
		l-7.18-30.63l2.49,51.14v39.13h-20.08V38.34h30.48l16.27,61.26l4.25,20.81L587.45,99.6z"/>
	<path class="st0" d="M675.08,97.84v26.52h55.69v18.32h-77.38V38.34h75.91v18.32h-54.22v22.57h48.8v18.61H675.08z"/>
	<path class="st0" d="M808.73,105.31V38.34h21.69v104.34h-21.25l-41.33-66.97v66.97h-21.69V38.34h21.25L808.73,105.31z"/>
	<path class="st0" d="M871.15,97.84v26.52h55.69v18.32h-77.38V38.34h75.91v18.32h-54.22v22.57h48.8v18.61H871.15z"/>
	<path class="st0" d="M943.1,38.34h82.65v16.85l-57.59,69.02h57.59v18.46h-86.31v-16.85l57.59-69.02H943.1V38.34z"/>
</g>
<g>
	<path d="M175.08,208.61c-11.02,0-17.05-4.81-18.1-14.42h1.18c1,8.87,6.64,13.31,16.92,13.31c5.11,0,9.04-1.02,11.77-3.05
		c2.73-2.03,4.1-4.91,4.1-8.62c0-2.88-0.88-5.18-2.62-6.88c-1.75-1.7-4.46-2.93-8.13-3.67l-9.57-1.84
		c-7.91-1.49-11.87-5.25-11.87-11.28c0-3.63,1.4-6.5,4.2-8.62c2.8-2.12,6.64-3.18,11.54-3.18c4.85,0,8.75,1.15,11.7,3.44
		c2.95,2.29,4.51,5.41,4.69,9.34h-1.18c-0.18-3.67-1.62-6.53-4.33-8.59c-2.71-2.05-6.34-3.08-10.88-3.08
		c-4.59,0-8.17,0.95-10.75,2.85c-2.58,1.9-3.87,4.51-3.87,7.83c0,5.29,3.65,8.65,10.95,10.1l9.57,1.9
		c7.82,1.53,11.74,5.42,11.74,11.67c0,4.02-1.49,7.16-4.46,9.41C184.7,207.49,180.5,208.61,175.08,208.61z"/>
	<path d="M223.01,208.61c-6.47,0-11.63-2.25-15.47-6.75c-3.89-4.55-5.84-10.34-5.84-17.37c0-7.21,1.92-13.02,5.77-17.44
		c3.89-4.46,9.07-6.69,15.54-6.69c6.64,0,11.89,2.23,15.74,6.69c3.85,4.42,5.77,10.23,5.77,17.44c0,7.17-1.92,12.96-5.77,17.37
		C234.9,206.36,229.65,208.61,223.01,208.61z M223.08,207.5c6.21,0,11.15-2.14,14.82-6.43c3.63-4.28,5.44-9.81,5.44-16.59
		c0-6.82-1.81-12.37-5.44-16.65c-3.67-4.24-8.61-6.36-14.82-6.36c-6.25,0-11.17,2.12-14.75,6.36c-3.63,4.28-5.44,9.83-5.44,16.65
		s1.84,12.35,5.51,16.59C212.02,205.35,216.91,207.5,223.08,207.5z"/>
	<path d="M287.92,161.14v1.11h-29.83v20.78h26.09v1.11h-26.09v23.67h-1.18v-46.68H287.92z"/>
	<path d="M293.69,161.14h35.67v1.11h-17.24v45.57h-1.18v-45.57h-17.24V161.14z"/>
	<path d="M378.59,199.69l11.8-38.55h1.18l-14.42,47.08h-1.05l-12.59-44.91l-12.65,44.91h-1.05l-14.42-47.08h1.18l11.8,38.55
		l1.97,6.69l1.77-6.69l10.82-38.55h1.11l10.82,38.55l1.77,6.69L378.59,199.69z"/>
	<path d="M434.58,207.82h-1.31l-6.82-15.74h-25.57l-6.82,15.74h-1.31l20.39-46.88h1.18L434.58,207.82z M413.34,163.5l-11.93,27.41
		h24.59l-11.87-27.41l-0.39-1.05L413.34,163.5z"/>
	<path d="M476.35,195.23l1.51,12.59h-1.25l-1.38-12.26c-0.31-2.93-1.18-5.25-2.62-6.95c-1.66-1.97-5.05-2.95-10.16-2.95h-17.11
		v22.16h-1.18v-46.68h20.33c4.06,0,7.29,1.08,9.67,3.25c2.38,2.16,3.57,5.12,3.57,8.88c0,3.32-0.93,6.02-2.79,8.1
		c-1.86,2.08-4.49,3.35-7.9,3.84c3.06,0.39,5.28,1.38,6.65,2.95C475.07,189.73,475.95,192.09,476.35,195.23z M445.34,162.26v22.29
		h18.1c4.11,0,7.32-0.98,9.64-2.95c2.32-1.97,3.47-4.72,3.47-8.26c0-3.5-1.07-6.22-3.21-8.16c-2.14-1.94-5.11-2.92-8.92-2.92H445.34
		z"/>
	<path d="M492.48,183.89v22.82h30.68v1.11H491.3v-46.68h30.62v1.11h-29.44v20.52h27.6v1.11H492.48z"/>
	<path d="M555.81,183.89v22.82h30.68v1.11h-31.86v-46.68h30.62v1.11h-29.44v20.52h27.6v1.11H555.81z"/>
	<path d="M631.86,205.92v-44.78h1.11v46.68h-1.11l-32.26-44.71v44.71h-1.18v-46.68h1.11L631.86,205.92z"/>
	<path d="M667.14,186.06v-1.18h19.67v22.95h-1.05l-0.13-13.05c-1.18,4.37-3.46,7.77-6.85,10.2c-3.39,2.43-7.49,3.64-12.29,3.64
		c-6.6,0-11.76-2.25-15.47-6.75c-3.76-4.55-5.64-10.38-5.64-17.51c0-7.43,1.86-13.29,5.57-17.57c3.76-4.28,8.92-6.43,15.47-6.43
		c5.51,0,10.03,1.29,13.57,3.87c3.54,2.58,5.73,6.16,6.56,10.75l-1.12,0.13c-0.61-3.45-2.32-6.51-5.11-9.18
		c-3.1-2.97-7.71-4.46-13.83-4.46c-6.25,0-11.12,2.03-14.62,6.1c-3.54,4.11-5.31,9.7-5.31,16.78c0,6.91,1.77,12.48,5.31,16.72
		c3.5,4.28,8.37,6.43,14.62,6.43c5.64,0,10.21-1.71,13.7-5.11c3.5-3.45,5.31-8.2,5.44-14.23v-2.1H667.14z"/>
	<path d="M702.08,207.82h-1.18v-46.68h1.18V207.82z"/>
	<path d="M749.62,205.92v-44.78h1.11v46.68h-1.11l-32.26-44.71v44.71h-1.18v-46.68h1.11L749.62,205.92z"/>
	<path d="M798.26,205.92v-44.78h1.11v46.68h-1.11L766,163.11v44.71h-1.18v-46.68h1.11L798.26,205.92z"/>
	<path d="M814.65,183.89v22.82h30.68v1.11h-31.86v-46.68h30.62v1.11h-29.44v20.52h27.6v1.11H814.65z"/>
	<path d="M889.46,195.23l1.51,12.59h-1.25l-1.38-12.26c-0.31-2.93-1.18-5.25-2.62-6.95c-1.66-1.97-5.05-2.95-10.16-2.95h-17.11
		v22.16h-1.18v-46.68h20.32c4.07,0,7.29,1.08,9.67,3.25c2.38,2.16,3.57,5.12,3.57,8.88c0,3.32-0.93,6.02-2.79,8.1
		c-1.86,2.08-4.49,3.35-7.9,3.84c3.06,0.39,5.28,1.38,6.65,2.95C888.18,189.73,889.07,192.09,889.46,195.23z M858.45,162.26v22.29
		h18.1c4.11,0,7.32-0.98,9.64-2.95c2.32-1.97,3.48-4.72,3.48-8.26c0-3.5-1.07-6.22-3.21-8.16c-2.14-1.94-5.11-2.92-8.92-2.92H858.45
		z"/>
</g>
<g>
	<path class="st1" d="M412.7,270c-2.93,0-5.22-1-6.88-3.01c-1.66-2.01-2.49-4.77-2.49-8.28c0-3.54,0.82-6.31,2.47-8.3
		c1.64-1.99,3.96-2.99,6.94-2.99c2.56,0,4.59,0.71,6.06,2.13c1.42,1.39,2.24,3.04,2.47,4.93h-0.71c-0.2-1.67-0.95-3.16-2.26-4.47
		c-1.31-1.25-3.16-1.88-5.56-1.88c-2.76,0-4.89,0.93-6.4,2.78c-1.5,1.85-2.26,4.45-2.26,7.8c0,3.32,0.77,5.91,2.3,7.78
		c1.53,1.87,3.65,2.8,6.36,2.8c2.2,0,3.99-0.62,5.35-1.86c1.37-1.24,2.17-2.92,2.42-5.04h0.75c-0.25,2.31-1.13,4.16-2.63,5.54
		S415.15,270,412.7,270z"/>
	<path class="st1" d="M442.76,266.9c-1.81,2.06-4.18,3.09-7.11,3.09c-2.9,0-5.25-1.03-7.07-3.09c-1.78-2.03-2.68-4.77-2.68-8.2
		c0-3.46,0.89-6.2,2.68-8.24c1.78-2.04,4.15-3.05,7.11-3.05c2.93,0,5.28,1.02,7.07,3.05c1.78,2.04,2.68,4.78,2.68,8.24
		C445.44,262.13,444.54,264.87,442.76,266.9z M435.65,269.29c2.76,0,4.96-0.95,6.59-2.84c1.63-1.9,2.45-4.47,2.45-7.74
		s-0.82-5.84-2.45-7.74c-1.63-1.9-3.83-2.84-6.59-2.84c-2.7,0-4.88,0.95-6.52,2.84c-1.65,1.9-2.47,4.47-2.47,7.74
		s0.82,5.84,2.47,7.74C430.77,268.34,432.95,269.29,435.65,269.29z"/>
	<path class="st1" d="M473.2,247.42c2.12,0,3.74,0.66,4.87,1.99s1.69,3.23,1.69,5.71v14.38h-0.75v-14.38c0-4.66-2.04-6.98-6.1-6.98
		c-1.98,0-3.6,0.79-4.87,2.38c-1.27,1.59-1.9,3.83-1.9,6.73v12.25h-0.75v-14.38c0-4.66-2.05-6.98-6.15-6.98
		c-1.98,0-3.59,0.79-4.83,2.38c-1.24,1.59-1.86,3.83-1.86,6.73v12.25h-0.75v-21.58h0.75l-0.04,4.72l0.04,0.21v0.38
		c0.5-1.84,1.35-3.27,2.55-4.29c1.2-1.02,2.68-1.53,4.43-1.53c1.87,0,3.37,0.53,4.5,1.59s1.8,2.57,2.03,4.52
		c0.47-1.92,1.33-3.42,2.57-4.5C469.86,247.95,471.39,247.42,473.2,247.42z"/>
	<path class="st1" d="M488.59,242.11h-1.21v-2.38h1.21V242.11z M488.38,269.49h-0.75v-21.58h0.75V269.49z"/>
	<path class="st1" d="M505.19,247.42c2.43,0,4.29,0.7,5.58,2.09c1.3,1.39,1.94,3.39,1.94,5.98v14.01h-0.75v-13.97
		c0-2.37-0.58-4.2-1.76-5.48c-1.17-1.28-2.87-1.92-5.1-1.92c-2.51,0-4.49,0.82-5.94,2.47c-1.45,1.65-2.17,4.06-2.17,7.23v11.67
		h-0.75v-21.58h0.71v5.77C498.15,249.51,500.9,247.42,505.19,247.42z"/>
	<path class="st1" d="M536.84,254.32v-6.4h0.75v21.91c0,2.7-0.79,4.75-2.36,6.15c-1.58,1.39-3.8,2.09-6.67,2.09
		c-2.65,0-4.64-0.54-5.98-1.63c-1.34-1.09-2.16-2.3-2.47-3.64h0.75c0.31,1.14,1.06,2.19,2.26,3.14c1.2,0.95,3.01,1.42,5.44,1.42
		c2.68,0,4.72-0.63,6.15-1.88c1.42-1.25,2.13-3.12,2.13-5.6v-6.86c-0.53,2.09-1.55,3.78-3.07,5.06c-1.52,1.28-3.34,1.92-5.46,1.92
		c-2.87,0-5.12-1.06-6.73-3.18c-1.65-2.12-2.47-4.88-2.47-8.28c0-3.35,0.82-6.05,2.47-8.11c1.62-2.01,3.83-3.01,6.65-3.01
		c2.17,0,4.03,0.64,5.56,1.92C535.32,250.62,536.34,252.28,536.84,254.32z M528.31,269.29c2.59,0,4.66-0.98,6.19-2.93
		c1.56-1.95,2.34-4.5,2.34-7.65c0-3.26-0.78-5.84-2.34-7.74c-1.56-1.9-3.64-2.84-6.23-2.84s-4.64,0.93-6.15,2.8
		c-1.5,1.87-2.26,4.4-2.26,7.61c0,3.23,0.75,5.83,2.26,7.78C523.63,268.3,525.69,269.29,528.31,269.29z"/>
	<path class="st1" d="M565.32,270c-2.65,0-4.72-0.61-6.21-1.82s-2.29-2.92-2.4-5.12h0.75c0.11,2.01,0.84,3.55,2.2,4.62
		c1.35,1.07,3.24,1.61,5.67,1.61c2.34,0,4.16-0.47,5.46-1.4c1.3-0.93,1.94-2.26,1.94-3.99c0-2.73-1.85-4.36-5.56-4.89l-3.35-0.5
		c-2.2-0.36-3.84-0.94-4.91-1.74c-1.07-0.79-1.61-1.96-1.61-3.49c0-1.76,0.68-3.14,2.05-4.16c1.37-1.02,3.22-1.53,5.56-1.53
		c2.34,0,4.23,0.56,5.67,1.67s2.22,2.63,2.36,4.56h-0.75c-0.14-1.73-0.85-3.09-2.13-4.08c-1.28-0.99-3-1.48-5.14-1.48
		c-2.09,0-3.76,0.44-5.02,1.32c-1.25,0.88-1.88,2.1-1.88,3.66c0,1.37,0.49,2.4,1.46,3.09c0.98,0.7,2.47,1.19,4.47,1.46l3.34,0.5
		c4.1,0.58,6.15,2.45,6.15,5.6c0,1.9-0.72,3.39-2.17,4.47C569.81,269.45,567.83,270,565.32,270z"/>
	<path class="st1" d="M595.47,266.9c-1.81,2.06-4.18,3.09-7.11,3.09c-2.9,0-5.25-1.03-7.07-3.09c-1.78-2.03-2.68-4.77-2.68-8.2
		c0-3.46,0.89-6.2,2.68-8.24s4.15-3.05,7.11-3.05c2.93,0,5.28,1.02,7.07,3.05c1.78,2.04,2.68,4.78,2.68,8.24
		C598.14,262.13,597.25,264.87,595.47,266.9z M588.36,269.29c2.76,0,4.96-0.95,6.59-2.84c1.63-1.9,2.45-4.47,2.45-7.74
		s-0.82-5.84-2.45-7.74c-1.63-1.9-3.83-2.84-6.59-2.84c-2.7,0-4.88,0.95-6.52,2.84c-1.65,1.9-2.47,4.47-2.47,7.74
		s0.82,5.84,2.47,7.74C583.48,268.34,585.65,269.29,588.36,269.29z"/>
	<path class="st1" d="M619.89,266.9c-1.81,2.06-4.18,3.09-7.11,3.09c-2.9,0-5.25-1.03-7.07-3.09c-1.79-2.03-2.68-4.77-2.68-8.2
		c0-3.46,0.89-6.2,2.68-8.24c1.78-2.04,4.15-3.05,7.11-3.05c2.93,0,5.28,1.02,7.07,3.05s2.68,4.78,2.68,8.24
		C622.56,262.13,621.67,264.87,619.89,266.9z M612.78,269.29c2.76,0,4.96-0.95,6.59-2.84c1.63-1.9,2.45-4.47,2.45-7.74
		s-0.82-5.84-2.45-7.74c-1.63-1.9-3.83-2.84-6.59-2.84c-2.7,0-4.88,0.95-6.52,2.84c-1.64,1.9-2.47,4.47-2.47,7.74
		s0.82,5.84,2.47,7.74C607.9,268.34,610.07,269.29,612.78,269.29z"/>
	<path class="st1" d="M637.87,247.42c2.43,0,4.29,0.7,5.58,2.09c1.3,1.39,1.94,3.39,1.94,5.98v14.01h-0.75v-13.97
		c0-2.37-0.59-4.2-1.76-5.48c-1.17-1.28-2.87-1.92-5.1-1.92c-2.51,0-4.49,0.82-5.94,2.47c-1.45,1.65-2.17,4.06-2.17,7.23v11.67
		h-0.75v-21.58h0.71v5.77C630.83,249.51,633.57,247.42,637.87,247.42z"/>
</g>
</svg>
